<svg xmlns="http://www.w3.org/2000/svg" width="61.386" height="102.63" viewBox="0 0 61.386 102.63">
  <g id="Group_2343" data-name="Group 2343" transform="translate(-172.166 -23.298)">
    <path id="Path_1473" data-name="Path 1473" d="M224.958,59.008h22.821s-4.557,14.4-11.436,14.4S224.958,59.008,224.958,59.008Z" transform="translate(-34.421 -15.493)" fill="#ffc400"/>
    <path id="Path_1474" data-name="Path 1474" d="M249.536,90.946a16.221,16.221,0,0,0-11.2-6.448s-8.447,10.462-19.487,0a16.224,16.224,0,0,0-11.289,6.55,21.251,21.251,0,0,0,41.192,9.873A21.054,21.054,0,0,0,249.536,90.946Zm-16.741,8.781a2.291,2.291,0,0,1-.487-.051l-2.248,2.253,4.065,4.065a1.025,1.025,0,0,1,0,1.444l-.323.323a1.025,1.025,0,0,1-1.444,0l-4.065-4.071-3.759,3.759a1.076,1.076,0,0,1-1.512,0l-.311-.317a1.066,1.066,0,0,1,0-1.512l3.754-3.753L224.6,99.993l-3.142,3.142-2-1.863,5.327-5.327a4.6,4.6,0,0,1,4.484-.589l-2.887,2.893,1.851,1.851,2.185-2.185a.161.161,0,0,1,.079-.045,2.4,2.4,0,0,1-.051-.5,2.351,2.351,0,0,1,2.349-2.349,2.063,2.063,0,0,1,.323.023,1.608,1.608,0,1,0,1.993,1.9,2.632,2.632,0,0,1,.04.425A2.353,2.353,0,0,1,232.795,99.727Z" transform="translate(-26.763 -26.552)" fill="#0c60ba"/>
    <path id="Path_1475" data-name="Path 1475" d="M253.389,133.855l-9.615-19-4.261-8.42h0a29.6,29.6,0,0,0-1.659-49.084,3.736,3.736,0,0,1-1.4.272H236.3l-.425,1.313c-.125.379-.476,1.427-1.053,2.825a24.341,24.341,0,0,1,11.255,24.723,24.287,24.287,0,1,1-36.324-24.9q-.518-1.214-1.019-2.548L208.2,57.62a3.719,3.719,0,0,1-1.54-.4,29.6,29.6,0,0,0,24.5,53.444h0l4.261,8.42,9.615,19a4.676,4.676,0,0,0,8.345-4.223Z" transform="translate(-20.342 -14.717)" fill="#0c60ba"/>
    <path id="Path_1478" data-name="Path 1478" d="M247.371,37.451h-.883c.017-.187.028-.368.034-.555a13.106,13.106,0,0,0-7.241-11.266l-1.353,6.652a.919.919,0,0,1-1.8-.368l1.427-7,.176-.878A12.875,12.875,0,0,0,233.4,23.3a13.113,13.113,0,0,0-4.467.781l.181.878,1.415,6.958a.919.919,0,0,1-1.8.368L227.392,25.7a13.116,13.116,0,0,0-7.1,11.2c.006.187.017.368.034.555h-.883a1.559,1.559,0,0,0-1.121.464,1.585,1.585,0,0,0,1.121,2.706h27.928a1.585,1.585,0,1,0,0-3.17Z" transform="translate(-31.341)" fill="#ffc400"/>
  </g>
</svg>
