<?xml version="1.0" encoding="utf-8"?>
<!-- Generator: Adobe Illustrator 22.1.0, SVG Export Plug-In . SVG Version: 6.00 Build 0)  -->
<svg version="1.1" id="Layer_1" xmlns="http://www.w3.org/2000/svg" xmlns:xlink="http://www.w3.org/1999/xlink" x="0px" y="0px"
	 viewBox="0 0 61.4 102.6" style="enable-background:new 0 0 61.4 102.6;" xml:space="preserve">
<style type="text/css">
	.st0{fill:#FFC400;}
	.st1{fill:#FFFFFF;}
</style>
<g id="Group_2343" transform="translate(-172.166 -23.298)">
	<path id="Path_1473" class="st0" d="M190.5,43.5h22.8c0,0-4.6,14.4-11.4,14.4S190.5,43.5,190.5,43.5z"/>
	<path id="Path_1474" class="st1" d="M222.8,64.4c-2.7-3.6-6.7-5.9-11.2-6.4c0,0-8.4,10.5-19.5,0c-4.5,0.5-8.6,2.9-11.3,6.6
		c-1.8,11.6,6.2,22.5,17.8,24.2c10.3,1.6,20.2-4.5,23.4-14.4C223,71.2,223.3,67.7,222.8,64.4z M206,73.2c-0.2,0-0.3,0-0.5-0.1
		l-2.2,2.3l4.1,4.1c0.4,0.4,0.4,1,0,1.4l-0.3,0.3c-0.4,0.4-1,0.4-1.4,0l-4.1-4.1l-3.8,3.8c-0.4,0.4-1.1,0.4-1.5,0l-0.3-0.3
		c-0.4-0.4-0.4-1.1,0-1.5c0,0,0,0,0,0l3.8-3.8l-1.9-1.9l-3.1,3.1l-2-1.9l5.3-5.3c1.3-1,3-1.2,4.5-0.6l-2.9,2.9l1.9,1.9l2.2-2.2
		c0,0,0,0,0.1,0c0-0.2-0.1-0.3-0.1-0.5c0-1.3,1.1-2.3,2.3-2.3c0.1,0,0.2,0,0.3,0c-0.9,0.2-1.4,1.1-1.1,2s1.1,1.4,2,1.1
		c0.6-0.2,1-0.6,1.1-1.2c0,0.1,0,0.3,0,0.4C208.4,72.1,207.3,73.2,206,73.2C206,73.2,206,73.2,206,73.2z"/>
	<path id="Path_1475" class="st1" d="M233,119.1l-9.6-19l-4.3-8.4l0,0c13.2-9.6,16.2-28.1,6.6-41.3c-2.2-3.1-5.1-5.7-8.3-7.8
		c-0.4,0.2-0.9,0.3-1.4,0.3H216l-0.4,1.3c-0.1,0.4-0.5,1.4-1.1,2.8c8.4,5.2,12.9,15,11.3,24.7c-2.2,13.2-14.7,22.2-28,20
		c-13.2-2.2-22.2-14.7-20-28c1.2-7.1,5.4-13.3,11.6-16.9c-0.3-0.8-0.7-1.7-1-2.5l-0.5-1.4c-0.5,0-1.1-0.2-1.5-0.4
		c-14,8.5-18.4,26.7-9.9,40.7c7.1,11.7,21.3,17,34.4,12.8l0,0l4.3,8.4l9.6,19c1.2,2.3,4,3.2,6.3,2.1
		C233.3,124.3,234.2,121.4,233,119.1L233,119.1z"/>
	<path id="Path_1478" class="st0" d="M216,37.5h-0.9c0-0.2,0-0.4,0-0.6c-0.2-4.8-2.9-9.1-7.2-11.3l-1.4,6.7
		c-0.1,0.5-0.6,0.8-1.1,0.7c-0.5-0.1-0.8-0.6-0.7-1.1l1.4-7l0.2-0.9c-1.4-0.5-2.9-0.7-4.3-0.7c-1.5,0-3,0.3-4.5,0.8l0.2,0.9l1.4,7
		c0.1,0.5-0.2,1-0.7,1.1c-0.5,0.1-0.9-0.2-1.1-0.7l-1.3-6.6c-4.2,2.2-6.9,6.5-7.1,11.2c0,0.2,0,0.4,0,0.6h-0.9
		c-0.4,0-0.8,0.2-1.1,0.5c-0.6,0.6-0.6,1.6,0,2.2c0.3,0.3,0.7,0.5,1.1,0.5H216c0.9,0,1.6-0.7,1.6-1.6
		C217.6,38.2,216.9,37.5,216,37.5L216,37.5z"/>
</g>
</svg>
