<?xml version="1.0" encoding="utf-8"?>
<!-- Generator: Adobe Illustrator 22.1.0, SVG Export Plug-In . SVG Version: 6.00 Build 0)  -->
<svg version="1.1" id="Layer_1" xmlns="http://www.w3.org/2000/svg" xmlns:xlink="http://www.w3.org/1999/xlink" x="0px" y="0px"
	 viewBox="0 0 700 700" style="enable-background:new 0 0 700 700;" xml:space="preserve">
<style type="text/css">
	.st0{fill:#FFC400;}
	.st1{fill:#0C60BA;}
</style>
<g id="Group_2343" transform="translate(-172.166 -23.298)">
	<path id="Path_1473" class="st0" d="M450.7,192.6h132.6c0,0-26.5,83.7-66.5,83.7S450.7,192.6,450.7,192.6z"/>
	<path id="Path_1474" class="st1" d="M638,313.9c-15.6-21-39.1-34.5-65.1-37.5c0,0-49.1,60.8-113.2,0c-26.2,2.9-50,16.7-65.6,38.1
		c-10.4,67.4,35.8,130.5,103.2,140.9c59.7,9.2,117.3-26.1,136.1-83.5C639.6,353.2,641.2,333.3,638,313.9z M540.8,364.9
		c-1,0-1.9-0.1-2.8-0.3l-13.1,13.1l23.6,23.6c2.3,2.3,2.3,6.1,0,8.4l-1.9,1.9c-2.3,2.3-6.1,2.3-8.4,0L514.6,388l-21.8,21.8
		c-2.4,2.4-6.4,2.4-8.8,0l-1.8-1.8c-2.4-2.4-2.4-6.3,0-8.8c0,0,0,0,0,0l21.8-21.8l-10.8-10.9l-18.3,18.3l-11.6-10.8l31-31
		c7.5-5.6,17.4-6.9,26.1-3.4l-16.8,16.8l10.8,10.8l12.7-12.7c0.1-0.1,0.3-0.2,0.5-0.3c-0.2-1-0.3-1.9-0.3-2.9
		c0-7.5,6.1-13.6,13.6-13.6c0.6,0,1.3,0,1.9,0.1c-5,1.4-7.9,6.5-6.6,11.5c1.4,5,6.5,7.9,11.5,6.6c3.3-0.9,5.9-3.6,6.7-7
		c0.1,0.8,0.2,1.6,0.2,2.5C554.5,358.8,548.4,364.9,540.8,364.9C540.8,364.9,540.8,364.9,540.8,364.9z"/>
	<path id="Path_1475" class="st1" d="M697.7,632l-55.9-110.4l-24.8-48.9l0,0c77-55.7,94.2-163.2,38.6-240.2
		c-13-18-29.4-33.3-48.2-45c-2.6,1-5.3,1.6-8.1,1.6h-0.9l-2.5,7.6c-0.7,2.2-2.8,8.3-6.1,16.4c49,30.1,74.8,86.9,65.4,143.7
		c-12.8,76.9-85.6,128.8-162.4,116c-76.9-12.8-128.8-85.6-116-162.4c6.9-41.1,31.5-77,67.3-98.2c-2-4.7-4-9.6-5.9-14.8l-3.1-8.2
		c-3.1-0.1-6.2-0.9-8.9-2.3c-81.1,49.4-106.8,155.3-57.4,236.4c41.4,67.9,124,98.6,199.7,74.2l0,0l24.8,48.9l55.9,110.4
		c6.8,13.4,23.1,18.8,36.5,12C699.1,661.8,704.5,645.4,697.7,632L697.7,632z"/>
	<path id="Path_1478" class="st0" d="M598.9,157.3h-5.1c0.1-1.1,0.2-2.1,0.2-3.2c-1-27.9-17.1-53-42.1-65.5l-7.9,38.7
		c-0.7,2.9-3.5,4.7-6.4,4c-2.8-0.6-4.5-3.3-4-6.1l8.3-40.7l1-5.1c-8.1-2.9-16.6-4.3-25.2-4.3c-8.8,0-17.6,1.5-26,4.5l1.1,5.1
		l8.2,40.4c0.5,2.9-1.4,5.7-4.3,6.2c-2.8,0.5-5.5-1.3-6.1-4l-7.8-38.3c-24.5,12.6-40.3,37.5-41.3,65.1c0,1.1,0.1,2.1,0.2,3.2h-5.1
		c-2.4,0-4.8,1-6.5,2.7c-3.6,3.6-3.6,9.4,0,13c1.7,1.7,4.1,2.7,6.5,2.7h162.3c5.1,0,9.2-4.1,9.2-9.2
		C608.1,161.5,604,157.4,598.9,157.3L598.9,157.3z"/>
</g>
</svg>
