<?xml version="1.0" encoding="utf-8"?>
<!-- Generator: Adobe Illustrator 22.1.0, SVG Export Plug-In . SVG Version: 6.00 Build 0)  -->
<svg version="1.1" id="Layer_1" xmlns="http://www.w3.org/2000/svg" xmlns:xlink="http://www.w3.org/1999/xlink" x="0px" y="0px"
	 viewBox="0 0 600 600" style="enable-background:new 0 0 600 600;" xml:space="preserve">
<style type="text/css">
	.st0{fill:#0960B8;}
	.st1{fill:#FFFFFF;}
	.st2{fill:#FFC400;}
	.st3{fill:#656565;stroke:#656565;}
	.st4{fill:#656565;stroke:#656565;stroke-width:0.283;}
	.st5{fill:#0C60BA;}
</style>
<g id="Group_2747" transform="translate(-303 -278.819)">
	<g id="Line_2" transform="translate(303 278.819)">
		
			<rect id="Rectangle_635" x="29.4" y="20.8" transform="matrix(0.7071 -0.7071 0.7071 0.7071 -12.275 29.9373)" class="st0" width="1.3" height="17.9"/>
	</g>
	<g id="Line_2-2" transform="translate(303 278.819)">
		
			<rect id="Rectangle_636" x="21" y="29.2" transform="matrix(0.7071 -0.7071 0.7071 0.7071 -12.2752 29.9374)" class="st0" width="17.9" height="1.3"/>
	</g>
</g>
<rect x="300" y="60" class="st0" width="60" height="60"/>
<rect x="360" y="60.1" class="st0" width="60" height="60"/>
<rect x="420" y="60.1" class="st0" width="60" height="60"/>
<rect x="480" y="60" class="st0" width="60" height="60"/>
<rect x="540" y="60.1" class="st0" width="60" height="60"/>
<rect x="0" y="60" class="st0" width="60" height="60"/>
<rect x="60" y="60.1" class="st0" width="60" height="60"/>
<rect x="120" y="60.1" class="st0" width="60" height="60"/>
<rect x="180" y="60" class="st0" width="60" height="60"/>
<rect x="240" y="60.1" class="st0" width="60" height="60"/>
<rect x="300" y="120" class="st0" width="60" height="60"/>
<rect x="360" y="120" class="st0" width="60" height="60"/>
<rect x="420" y="120" class="st0" width="60" height="60"/>
<rect x="480" y="120" class="st0" width="60" height="60"/>
<rect x="540" y="120" class="st0" width="60" height="60"/>
<rect x="0" y="120" class="st0" width="60" height="60"/>
<rect x="60" y="120" class="st0" width="60" height="60"/>
<rect x="120" y="120" class="st0" width="60" height="60"/>
<rect x="180" y="120" class="st0" width="60" height="60"/>
<rect x="240" y="120" class="st0" width="60" height="60"/>
<rect x="300" y="179.9" class="st0" width="60" height="60"/>
<rect x="360" y="180" class="st0" width="60" height="60"/>
<rect x="420" y="180" class="st0" width="60" height="60"/>
<rect x="480" y="179.9" class="st0" width="60" height="60"/>
<rect x="540" y="180" class="st0" width="60" height="60"/>
<rect x="0" y="179.9" class="st0" width="60" height="60"/>
<rect x="60" y="180" class="st0" width="60" height="60"/>
<rect x="120" y="180" class="st0" width="60" height="60"/>
<rect x="180" y="179.9" class="st0" width="60" height="60"/>
<rect x="240" y="180" class="st0" width="60" height="60"/>
<rect x="300" y="239.9" class="st0" width="60" height="60"/>
<rect x="360" y="240" class="st0" width="60" height="60"/>
<rect x="420" y="240" class="st0" width="60" height="60"/>
<rect x="480" y="239.9" class="st0" width="60" height="60"/>
<rect x="540" y="240" class="st0" width="60" height="60"/>
<rect x="0" y="239.9" class="st0" width="60" height="60"/>
<rect x="60" y="240" class="st0" width="60" height="60"/>
<rect x="120" y="240" class="st0" width="60" height="60"/>
<rect x="180" y="239.9" class="st0" width="60" height="60"/>
<rect x="240" y="240" class="st0" width="60" height="60"/>
<rect x="300" y="299.9" class="st0" width="60" height="60"/>
<rect x="360" y="299.9" class="st0" width="60" height="60"/>
<rect x="420" y="299.9" class="st0" width="60" height="60"/>
<rect x="480" y="299.9" class="st0" width="60" height="60"/>
<rect x="540" y="299.9" class="st0" width="60" height="60"/>
<rect x="0" y="299.9" class="st0" width="60" height="60"/>
<rect x="60" y="299.9" class="st0" width="60" height="60"/>
<rect x="120" y="299.9" class="st0" width="60" height="60"/>
<rect x="180" y="299.9" class="st0" width="60" height="60"/>
<rect x="240" y="299.9" class="st0" width="60" height="60"/>
<rect x="300" y="359.9" class="st0" width="60" height="60"/>
<rect x="360" y="359.9" class="st0" width="60" height="60"/>
<rect x="420" y="359.9" class="st0" width="60" height="60"/>
<rect x="480" y="359.9" class="st0" width="60" height="60"/>
<rect x="540" y="359.9" class="st0" width="60" height="60"/>
<rect x="0" y="359.9" class="st0" width="60" height="60"/>
<rect x="60" y="359.9" class="st0" width="60" height="60"/>
<rect x="120" y="359.9" class="st0" width="60" height="60"/>
<rect x="180" y="359.9" class="st0" width="60" height="60"/>
<rect x="240" y="359.9" class="st0" width="60" height="60"/>
<rect x="300" y="419.8" class="st0" width="60" height="60"/>
<rect x="360" y="419.9" class="st0" width="60" height="60"/>
<rect x="420" y="419.9" class="st0" width="60" height="60"/>
<rect x="480" y="419.8" class="st0" width="60" height="60"/>
<rect x="540" y="419.9" class="st0" width="60" height="60"/>
<rect x="0" y="419.8" class="st0" width="60" height="60"/>
<rect x="60" y="419.9" class="st0" width="60" height="60"/>
<rect x="120" y="419.9" class="st0" width="60" height="60"/>
<rect x="180" y="419.8" class="st0" width="60" height="60"/>
<rect x="240" y="419.9" class="st0" width="60" height="60"/>
<rect x="300" y="479.8" class="st0" width="60" height="60"/>
<rect x="360" y="479.9" class="st0" width="60" height="60"/>
<rect x="420" y="479.9" class="st0" width="60" height="60"/>
<rect x="480" y="479.8" class="st0" width="60" height="60"/>
<rect x="540" y="479.9" class="st0" width="60" height="60"/>
<rect x="0" y="479.8" class="st0" width="60" height="60"/>
<rect x="60" y="479.9" class="st0" width="60" height="60"/>
<rect x="120" y="479.9" class="st0" width="60" height="60"/>
<rect x="180" y="479.8" class="st0" width="60" height="60"/>
<rect x="240" y="479.9" class="st0" width="60" height="60"/>
<rect x="300" y="539.8" class="st0" width="60" height="60"/>
<rect x="360" y="539.8" class="st0" width="60" height="60"/>
<rect x="420" y="539.8" class="st0" width="60" height="60"/>
<rect x="480" y="539.8" class="st0" width="60" height="60"/>
<rect x="540" y="539.8" class="st0" width="60" height="60"/>
<rect x="0" y="539.8" class="st0" width="60" height="60"/>
<rect x="60" y="539.8" class="st0" width="60" height="60"/>
<rect x="120" y="539.8" class="st0" width="60" height="60"/>
<rect x="180" y="539.8" class="st0" width="60" height="60"/>
<rect x="240" y="539.8" class="st0" width="60" height="60"/>
<g>
	
		<image style="overflow:visible;opacity:0.3;" width="48" height="56" xlink:href="898D9F32B1EE5265.png"  transform="matrix(1 0 0 1 66 5)">
	</image>
	<g>
		<g>
			<path class="st1" d="M81.7,19.1c0.3,0,0.5-0.2,0.5-0.5c0-0.3-0.2-0.5-0.5-0.5c0,0,0,0,0,0c-1.3,0-2.3,1-2.3,2.3
				c0,1.3,1,2.3,2.3,2.3c1.3,0,2.3-1,2.3-2.3c0-0.3-0.2-0.5-0.5-0.5c0,0,0,0,0,0h0c-0.3,0-0.5,0.2-0.5,0.5c0,0,0,0,0,0
				c0,0.7-0.5,1.2-1.2,1.2c-0.7,0-1.2-0.5-1.2-1.2S81,19.1,81.7,19.1z"/>
			<path class="st1" d="M83.4,26.2C83.4,26.2,83.4,26.2,83.4,26.2L83.4,26.2c-0.3,0-0.6,0.2-0.6,0.5c0,0,0,0,0,0
				c0,0.7-0.5,1.2-1.2,1.2c-0.7,0-1.2-0.5-1.2-1.2v0c0-0.7,0.5-1.2,1.2-1.2c0.3,0,0.5-0.2,0.5-0.5c0-0.3-0.2-0.5-0.5-0.5
				c-1.3,0-2.3,1-2.3,2.3s1,2.3,2.3,2.3c1.3,0,2.3-1,2.3-2.3C84,26.4,83.7,26.2,83.4,26.2z"/>
			<path class="st1" d="M89.8,27.4L89.8,27.4l-4.1,0c-0.3,0-0.5,0.2-0.5,0.5s0.2,0.5,0.5,0.5h4.1c0.3,0,0.5-0.2,0.5-0.5
				C90.4,27.6,90.1,27.4,89.8,27.4z"/>
			<path class="st1" d="M89.8,25L89.8,25l-4.1,0c-0.3,0-0.5,0.2-0.5,0.5c0,0.3,0.2,0.5,0.5,0.5h4.1c0.3,0,0.5-0.2,0.5-0.5
				C90.4,25.3,90.1,25,89.8,25z"/>
			<path class="st1" d="M85.8,33.8c-0.3,0-0.5,0.2-0.5,0.5c0,0,0,0,0,0c0,0.3,0.2,0.5,0.5,0.5h2.9c0.3,0,0.5-0.2,0.5-0.5
				c0-0.3-0.2-0.5-0.5-0.5c0,0,0,0,0,0v0H85.8z"/>
			<path class="st1" d="M90.4,32c0-0.3-0.2-0.5-0.5-0.5l0,0h-4.1c-0.3,0-0.5,0.2-0.5,0.5c0,0,0,0,0,0c0,0.3,0.2,0.5,0.5,0.5h4.1
				C90.1,32.5,90.4,32.3,90.4,32z"/>
			<path class="st1" d="M95.6,21.5c0-0.3-0.2-0.5-0.5-0.5h-9.3c-0.3,0-0.5,0.2-0.5,0.5c0,0.3,0.2,0.5,0.5,0.5h9.3
				C95.4,22,95.6,21.8,95.6,21.5z"/>
			<path class="st1" d="M85.8,19.7h7c0.3,0,0.5-0.2,0.5-0.5c0-0.3-0.2-0.5-0.5-0.5l0,0h-7c-0.3,0-0.5,0.2-0.5,0.5
				C85.2,19.5,85.5,19.7,85.8,19.7z"/>
			<path class="st1" d="M81.7,31.9c0.3,0,0.5-0.2,0.5-0.5c0-0.3-0.2-0.5-0.5-0.5c0,0,0,0,0,0c-1.3,0-2.3,1-2.3,2.3
				c0,1.3,1,2.3,2.3,2.3c1.3,0,2.3-1,2.3-2.3v0c0-0.3-0.2-0.5-0.5-0.5c0,0,0,0,0,0l0,0c-0.3,0-0.5,0.2-0.5,0.5c0,0,0,0,0,0
				c0,0.7-0.5,1.2-1.2,1.2c-0.7,0-1.2-0.5-1.2-1.2v0C80.5,32.5,81,31.9,81.7,31.9z"/>
			<path class="st1" d="M102.6,34.4L102.6,34.4c-1,0.5-2.2,0.2-2.9-0.6c-0.8,0.3-1.7,0.3-2.5,0c0,0-0.1,0-0.1,0
				c-0.4-0.1-0.7-0.3-1-0.6V27c0-0.1,0-0.2,0-0.3c-0.1-1.4-1.4-2.4-2.8-2.2c-1.3,0.2-2.3,1.3-2.2,2.6v6.8l-1.5,1.5
				c-1,1-1.4,2.4-1.1,3.7l0.1,0.3c-0.2-0.4-0.7-0.6-1.2-0.6h-9.7v-24h19.3v17.8c0,0,0,0,0,0c0,0.8,0.6,1.4,1.4,1.4
				c0.8,0,1.4-0.6,1.4-1.4V14.5c0-1.4-1.1-2.6-2.6-2.6H77.6c-1.4,0-2.6,1.1-2.6,2.6V39c0,1.4,1.1,2.6,2.6,2.6h9.9
				c0.7,0,1.3-0.6,1.4-1.3l0.9,3.9c0.5,2.3,2.6,4,5,4l0,0h4.9c2.8,0,5.1-2.3,5.1-5.1v-6C104.9,35.7,103.9,34.6,102.6,34.4z
				 M92.2,38.6c0.6,0,1-0.5,1.1-1V27.1c0-0.2,0.1-0.4,0.4-0.5h0c0,0,0,0,0,0c0.2,0,0.4,0.2,0.4,0.4v9.6c0,0.6,0.5,1,1,1s1-0.5,1-1
				v-0.9c0-0.2,0.2-0.4,0.4-0.4c0.2,0,0.4,0.3,0.4,0.5v1.4c0,0.6,0.5,1,1,1c0.6,0,1-0.5,1.1-1v-0.9c0-0.2,0.2-0.4,0.4-0.4
				c0.2,0,0.4,0.3,0.4,0.5v1.4c0,0,0,0,0,0c0,0.6,0.5,1,1.1,1c0.6,0,1-0.5,1-1.1v-0.9c0,0,0,0,0,0c0-0.2,0.2-0.4,0.4-0.4
				c0.2,0,0.4,0.3,0.4,0.5v6c0,1.7-1.4,3-3,3h-4.9c-1.4,0-2.6-1-2.9-2.3l-1.2-5.2c-0.1-0.6,0-1.3,0.5-1.7l0,0.7
				C91.1,38.1,91.6,38.6,92.2,38.6z"/>
		</g>
	</g>
</g>
<g id="Group_2343" transform="translate(-447.14 -285.26)">
	
		<image style="overflow:visible;opacity:0.3;" width="44" height="57" xlink:href="898D9F32B1EE526C.png"  transform="matrix(1 0 0 1 575.14 286.26)">
	</image>
	<g>
		<g>
			<g id="Group_2707_9_">
				<g id="Group_2706_9_">
					<path id="Path_1473_12_" class="st1" d="M590.6,304.3h13.2c0,0-2.6,8.3-6.6,8.3S590.6,304.3,590.6,304.3z"/>
					<path id="Path_1474_12_" class="st1" d="M609.3,316.4c-1.5-2.1-3.9-3.4-6.5-3.7c0,0-4.9,6-11.3,0c-2.6,0.3-5,1.7-6.5,3.8
						c-1,6.7,3.5,13,10.2,14c6.7,1,13-3.5,14-10.2C609.5,318.9,609.5,317.6,609.3,316.4z M599.6,321.4c-0.1,0-0.2,0-0.3,0l-1.3,1.3
						l2.3,2.3c0.2,0.2,0.2,0.6,0,0.8l-0.2,0.2c-0.2,0.2-0.6,0.2-0.8,0l-2.3-2.4l-2.2,2.2c-0.2,0.2-0.6,0.2-0.9,0l-0.2-0.2
						c-0.2-0.2-0.2-0.6,0-0.9l0,0l2.2-2.2l-1.1-1.1l-1.8,1.8l-1.2-1.1l3.1-3.1c0.7-0.6,1.7-0.7,2.6-0.3l-1.7,1.7l1.1,1.1l1.3-1.3
						c0,0,0,0,0,0c0-0.1,0-0.2,0-0.3c0-0.7,0.6-1.4,1.4-1.4c0.1,0,0.1,0,0.2,0c-0.5,0.1-0.8,0.6-0.7,1.1c0.1,0.5,0.6,0.8,1.1,0.7
						c0.3-0.1,0.6-0.4,0.7-0.7c0,0.1,0,0.2,0,0.2C601,320.8,600.3,321.4,599.6,321.4L599.6,321.4L599.6,321.4z"/>
					<path id="Path_1478_12_" class="st1" d="M605.4,300.8h-0.5c0-0.1,0-0.2,0-0.3c-0.1-2.8-1.7-5.3-4.2-6.5l-0.8,3.8
						c-0.1,0.3-0.4,0.5-0.6,0.4c-0.3-0.1-0.5-0.3-0.4-0.6l0.8-4l0.1-0.5c-0.8-0.3-1.6-0.4-2.5-0.4c-0.9,0-1.8,0.2-2.6,0.5l0.1,0.5
						l0.8,4c0.1,0.3-0.1,0.6-0.4,0.6c-0.3,0-0.5-0.1-0.6-0.4l-0.8-3.8c-2.4,1.3-4,3.7-4.1,6.5c0,0.1,0,0.2,0,0.3h-0.5
						c-0.2,0-0.5,0.1-0.6,0.3c-0.4,0.4-0.4,0.9,0,1.3c0.2,0.2,0.4,0.3,0.6,0.3h16.1c0.5,0,0.9-0.4,0.9-0.9
						C606.3,301.2,605.9,300.8,605.4,300.8L605.4,300.8L605.4,300.8L605.4,300.8z"/>
				</g>
			</g>
		</g>
	</g>
</g>
<g id="business" transform="translate(-0.016 0)">
	<g id="Group_2399" transform="translate(0.016 0.007)">
		<path id="Path_1489" class="st1" d="M203.4,24.6"/>
	</g>
	<path id="Path_1482" class="st2" d="M217.5,28.6c-0.1,0-0.2,0-0.3,0c-0.6-0.2-0.9-0.8-0.7-1.4l0,0c0-0.1,0.1-0.2,0.1-0.4
		c0-0.6-0.5-1.1-1.1-1.1c-1.8,0-3.2-1.5-3.2-3.3c0-1.8,1.4-3.2,3.2-3.2h2.2c0.6,0,1.1,0.5,1.1,1.1c0,0.6-0.5,1.1-1.1,1.1h-2.2
		c-0.6,0-1.1,0.5-1.1,1.1c0,0.6,0.5,1.1,1.1,1.1c1.8,0,3.3,1.5,3.3,3.3c0,0.3-0.1,0.7-0.2,1C218.4,28.2,217.9,28.6,217.5,28.6z"/>
	<path id="Path_1483" class="st2" d="M215.4,21.4c-0.6,0-1.1-0.5-1.1-1.1v-2.2c0-0.6,0.5-1.1,1.1-1.1c0.6,0,1.1,0.5,1.1,1.1
		c0,0,0,0,0,0v2.2C216.5,20.9,216,21.4,215.4,21.4z"/>
	<path id="Path_1484" class="st2" d="M219.7,35.7c-0.6,0-1.1-0.5-1.1-1.1c0-0.4,0.3-0.8,0.7-1c5-2.1,7.2-7.9,5.1-12.9
		s-7.9-7.2-12.9-5.1c-2.3,1-4.1,2.8-5.1,5.1c-0.2,0.6-0.9,0.8-1.4,0.6c-0.6-0.2-0.8-0.9-0.6-1.4l0,0c2.6-6.1,9.7-8.9,15.7-6.2
		s8.9,9.7,6.2,15.7c-1.2,2.8-3.4,5-6.2,6.2C220,35.7,219.8,35.7,219.7,35.7z"/>
	<path id="Path_1485" class="st2" d="M204.5,40.9h-2.2c-0.6,0-1.1-0.5-1.1-1.1c0-0.6,0.5-1.1,1.1-1.1c0,0,0,0,0,0h2.2
		c0.6,0,1.1-0.5,1.1-1.1c0-0.6-0.5-1.1-1.1-1.1c-1.8,0-3.3-1.4-3.3-3.2c0-1.8,1.4-3.3,3.2-3.3c0,0,0.1,0,0.1,0h2.2
		c0.6,0,1.1,0.5,1.1,1.1c0,0.6-0.5,1.1-1.1,1.1h-2.2c-0.6,0-1.1,0.5-1.1,1.1c0,0.6,0.5,1.1,1.1,1.1c0,0,0,0,0,0
		c1.8,0,3.3,1.4,3.3,3.2c0,1.8-1.4,3.3-3.2,3.3C204.6,40.9,204.6,40.9,204.5,40.9L204.5,40.9z"/>
	<path id="Path_1486" class="st2" d="M204.5,32.2c-0.6,0-1.1-0.5-1.1-1.1V29c0-0.6,0.5-1.1,1.1-1.1c0.6,0,1.1,0.5,1.1,1.1v2.2
		C205.6,31.7,205.1,32.2,204.5,32.2z"/>
	<path id="Path_1487" class="st2" d="M204.5,43.1c-0.6,0-1.1-0.5-1.1-1.1v-2.2c0-0.6,0.5-1.1,1.1-1.1c0.6,0,1.1,0.5,1.1,1.1
		c0,0,0,0,0,0V42C205.6,42.6,205.1,43.1,204.5,43.1z"/>
	<path id="Path_1488" class="st2" d="M204.5,47.4c-6.6,0-11.9-5.3-11.9-11.9c0-6.6,5.3-11.9,11.9-11.9c6.6,0,11.9,5.3,11.9,11.9
		C216.5,42.1,211.1,47.4,204.5,47.4C204.5,47.4,204.5,47.4,204.5,47.4z M204.5,25.7c-5.4,0-9.8,4.4-9.8,9.8s4.4,9.8,9.8,9.8
		s9.8-4.4,9.8-9.8l0,0C214.3,30.1,209.9,25.7,204.5,25.7L204.5,25.7z"/>
</g>
<g>
	<path id="Path_1178" class="st2" d="M287.5,36.2c0-5.1-3.4-9.5-8.3-10.9c-0.3-7.4-6.6-13.1-13.9-12.8s-13.1,6.6-12.8,13.9
		c0.1,2.2,0.7,4.3,1.8,6.2l-1.8,6.5l6.5-1.8c1.9,1.1,4,1.7,6.2,1.8c1.7,6,7.9,9.5,13.9,7.9c1-0.3,1.9-0.7,2.7-1.2l5.5,1.5l-1.5-5.5
		C287,40.2,287.5,38.2,287.5,36.2z M259.4,35.2l-3.9,1.1l1.1-3.9l-0.2-0.4c-3.4-5.3-1.8-12.3,3.4-15.6c5.3-3.4,12.3-1.8,15.6,3.4
		s1.8,12.3-3.4,15.6c-3.7,2.4-8.5,2.4-12.2,0L259.4,35.2z M284.5,44.5l-2.9-0.8l-0.4,0.3c-4.3,2.8-10,1.6-12.8-2.7
		c-0.4-0.6-0.8-1.3-1-2.1c6.2-0.7,11-5.6,11.7-11.7c4.9,1.6,7.5,6.9,5.8,11.7c-0.2,0.7-0.6,1.4-1,2.1l-0.3,0.4L284.5,44.5z"/>
	<path id="Path_1179" class="st2" d="M264.8,31h2.1v2.1h-2.1V31z"/>
	<path id="Path_1180" class="st2" d="M267.9,22.7c0,0.6-0.2,1.1-0.7,1.5l-2.4,2.2V29h2.1v-1.6l1.7-1.6c1.7-1.5,1.8-4.1,0.3-5.8
		s-4.1-1.8-5.8-0.3c-0.9,0.8-1.3,1.9-1.3,3h2.1c0-1.1,1-2,2.1-2C267,20.8,267.9,21.7,267.9,22.7L267.9,22.7z"/>
</g>
<g id="business_1_" transform="translate(0.498 0.5)">
	<g id="Group_2401" transform="translate(0.002)">
		<g id="Group_2400" transform="translate(0)">
			<path id="Path_1490" class="st3" d="M339.5,22.5c0.3,0,0.6-0.3,0.6-0.6V15c0-1-0.8-1.9-1.9-1.9h-23c-1,0-1.9,0.8-1.9,1.9v28.5
				c0,1,0.9,1.9,1.9,1.9h23c1,0,1.9-0.8,1.9-1.9v-4.7c0-0.3-0.3-0.6-0.7-0.6c-0.3,0-0.6,0.3-0.6,0.6v4.7c0,0.3-0.3,0.6-0.6,0.6h-23
				c-0.3,0-0.6-0.3-0.6-0.6V15c0-0.3,0.3-0.6,0.6-0.6h23c0.3,0,0.6,0.3,0.6,0.6v6.9C338.8,22.2,339.1,22.5,339.5,22.5z"/>
		</g>
	</g>
	<g id="Group_2403" transform="translate(7.58 3.41)">
		<g id="Group_2402">
			<path id="Path_1491" class="st4" d="M319.1,13.1c-3.2,0-5.8,2.6-5.8,5.8c0,1.6,0.7,3.1,1.8,4.2c0,0,0,0,0.1,0.1
				c2.2,2,5.6,2,7.8,0c0,0,0,0,0.1-0.1c2.3-2.2,2.4-5.9,0.2-8.2C322.3,13.8,320.7,13.1,319.1,13.1z M319.1,23.4c-1,0-2-0.3-2.7-0.9
				c0.9-1.5,2.8-2,4.3-1.2c0.5,0.3,0.9,0.7,1.2,1.2C321.1,23.1,320.1,23.4,319.1,23.4z M318.1,18.6v-0.4c0-0.6,0.5-1,1-1s1,0.5,1,1
				v0.4c0,0.6-0.5,1-1,1S318.1,19.2,318.1,18.6z M322.8,21.6c-0.5-0.7-1.1-1.2-1.9-1.6c0.3-0.4,0.5-0.9,0.5-1.4v-0.4
				c0-1.3-1-2.3-2.2-2.3c-1.3,0-2.3,1-2.3,2.2c0,0,0,0.1,0,0.1v0.4c0,0.5,0.2,1,0.5,1.4c-0.8,0.3-1.4,0.9-1.9,1.6
				c-1.5-2-1.1-4.9,1-6.4s4.9-1.1,6.4,1C324,17.8,324,20,322.8,21.6L322.8,21.6z"/>
		</g>
	</g>
	<g id="Group_2405" transform="translate(12.759 27.661)">
		<g id="Group_2404">
			<path id="Path_1492" class="st4" d="M317.4,13.1H314c-0.3,0-0.6,0.3-0.7,0.6c0,0.3,0.3,0.6,0.6,0.7c0,0,0,0,0.1,0h3.4
				c0.3,0,0.6-0.3,0.7-0.6C318,13.4,317.8,13.1,317.4,13.1C317.4,13.1,317.4,13.1,317.4,13.1z"/>
		</g>
	</g>
	<g id="Group_2407" transform="translate(7.201 24.124)">
		<g id="Group_2406">
			<path id="Path_1493" class="st4" d="M322.9,13.1h-9c-0.3,0-0.6,0.3-0.7,0.6c0,0.3,0.3,0.6,0.6,0.7c0,0,0,0,0.1,0h9
				c0.3,0,0.6-0.3,0.7-0.6C323.6,13.4,323.3,13.1,322.9,13.1C323,13.1,323,13.1,322.9,13.1L322.9,13.1z"/>
		</g>
	</g>
	<g id="Group_2409" transform="translate(7.201 20.588)">
		<g id="Group_2408">
			<path id="Path_1494" class="st4" d="M322.9,13.1h-9c-0.3,0-0.6,0.3-0.7,0.6c0,0.3,0.3,0.6,0.6,0.7c0,0,0,0,0.1,0h9
				c0.3,0,0.6-0.3,0.7-0.6C323.6,13.4,323.3,13.1,322.9,13.1C323,13.1,323,13.1,322.9,13.1L322.9,13.1z"/>
		</g>
	</g>
	<g id="Group_2411" transform="translate(4.504 17.051)">
		<g id="Group_2410">
			<path id="Path_1495" class="st4" d="M314.4,13.3c-0.2-0.2-0.6-0.2-0.9,0c-0.2,0.2-0.2,0.6,0,0.9c0.2,0.2,0.6,0.2,0.9,0
				c0.1-0.1,0.2-0.3,0.2-0.4C314.6,13.6,314.5,13.4,314.4,13.3z"/>
		</g>
	</g>
	<g id="Group_2413" transform="translate(4.504 20.588)">
		<g id="Group_2412">
			<path id="Path_1496" class="st4" d="M314.4,13.3c-0.2-0.2-0.6-0.2-0.9,0c-0.2,0.2-0.2,0.6,0,0.9c0.2,0.2,0.6,0.2,0.9,0
				c0.1-0.1,0.2-0.3,0.2-0.4C314.6,13.6,314.5,13.4,314.4,13.3z"/>
		</g>
	</g>
	<g id="Group_2415" transform="translate(4.504 24.124)">
		<g id="Group_2414">
			<path id="Path_1497" class="st4" d="M314.4,13.3c-0.2-0.2-0.6-0.2-0.9,0c-0.2,0.2-0.2,0.6,0,0.9c0.2,0.2,0.6,0.2,0.9,0
				c0.1-0.1,0.2-0.3,0.2-0.4C314.6,13.6,314.5,13.4,314.4,13.3z"/>
		</g>
	</g>
	<g id="Group_2417" transform="translate(7.201 17.051)">
		<g id="Group_2416">
			<path id="Path_1498" class="st4" d="M322.9,13.1h-9c-0.3,0-0.6,0.3-0.7,0.6c0,0.3,0.3,0.6,0.6,0.7c0,0,0,0,0.1,0h9
				c0.3,0,0.6-0.3,0.7-0.6C323.6,13.4,323.3,13.1,322.9,13.1C323,13.1,323,13.1,322.9,13.1L322.9,13.1z"/>
		</g>
	</g>
	<g id="Group_2419" transform="translate(18.795 7.874)">
		<g id="Group_2418">
			<path id="Path_1499" class="st4" d="M325.6,13.4c-1.3-0.7-2.9-0.3-3.6,1c0,0,0,0,0,0L314,28.2c0,0.1-0.1,0.2-0.1,0.2l-0.6,5
				c0,0.3,0.2,0.7,0.6,0.7c0.2,0,0.3,0,0.4-0.1l4.1-3c0.1-0.1,0.1-0.1,0.2-0.2l7.9-13.8C327.2,15.8,326.8,14.2,325.6,13.4z
				 M314.8,32.1l0.3-2.6l1.8,1.1L314.8,32.1z M317.8,29.7l-2.4-1.4l6.4-11l2.4,1.4L317.8,29.7z M325.4,16.4l-0.6,1.1l-2.4-1.4
				l0.6-1.1c0.4-0.7,1.2-0.9,1.9-0.5S325.8,15.8,325.4,16.4z"/>
		</g>
	</g>
</g>
<path id="work" class="st2" d="M405,33.8l-2.7-2.7c-0.8-0.8-1.8-1.2-2.9-1.2h-1.2c0.8-1.4,1.3-3.1,1.3-4.7h1.3c1.1,0,2-0.9,2.1-2
	c0-1.1-0.9-2-2-2.1c0,0-0.1,0-0.1,0c-0.3-4.6-3.5-8.6-8-9.7v-1c0-0.4-0.3-0.7-0.7-0.7c0,0,0,0,0,0h-4c-0.4,0-0.7,0.3-0.7,0.7v1
	c-4.5,1.2-7.7,5.1-8,9.7c-1.1,0-2,0.8-2.1,2s0.8,2,2,2.1c0,0,0.1,0,0.1,0h1.3c0,1.7,0.4,3.3,1.3,4.7h-1.2c-1.1,0-2.1,0.4-2.9,1.2
	l-2.7,2.7c-1.6,1.6-1.6,4.1,0,5.7c0.5,0.5,1.6,1.6,2.2,2.2c0.2,1,1,1.7,2,1.7h0.7c0,1.5,0,4.6,0,6.1c0,0.4,0.3,0.7,0.7,0.7h8.1
	c0.4,0,0.7-0.3,0.7-0.7V44h1.3v2.7c0,1.5,1.2,2.7,2.7,2.7c1.5,0,2.7-1.2,2.7-2.7v2.7c0,0.4,0.3,0.7,0.7,0.7h2.7
	c0.4,0,0.7-0.3,0.7-0.7c0-1.5,0-4.6,0-6.1h0.7c1,0,1.8-0.7,2-1.7l2.2-2.2C406.6,37.9,406.6,35.3,405,33.8L405,33.8z M400.4,36.8
	l-0.2,0.2v-0.8l0.4,0.4L400.4,36.8z M390.8,38.6v-1.3h2.7v1.3L390.8,38.6z M386.7,38.6v-1.3h2.7v1.3L386.7,38.6z M384,38.6v-6.2
	c0.4,0.4,0.9,0.7,1.3,0.9v5.3L384,38.6z M379.6,36.6l0.4-0.4V37L379.6,36.6z M395.5,25.2v6c-3.1,2.7-7.7,2.7-10.8,0v-6H395.5z
	 M386.7,34.6h2.7v1.3h-2.7V34.6z M390.8,34.6h2.7v1.3h-2.7V34.6z M382.7,36.6h-1.3v-2.7h1.3V36.6z M381.3,42.7V38h1.3V46h-1.3V42.7z
	 M394.8,36.6v-3.3c0.5-0.3,0.9-0.6,1.3-0.9v6.2h-1.3V36.6z M397.5,43.3V38h1.3V46h-1.3V43.3z M398.8,34.6v2h-1.3v-2.7h1.3V34.6z
	 M396.8,29.6v-4.5h1.3C398.2,26.8,397.7,28.3,396.8,29.6L396.8,29.6z M379.3,23.8c-0.4,0-0.7-0.3-0.6-0.7c0-0.4,0.3-0.6,0.6-0.6h4.7
	c0.4,0,0.7-0.3,0.6-0.7c0-0.4-0.3-0.6-0.6-0.6h-3.3c0.3-3.9,3-7.2,6.7-8.4v3c0,0.4,0.3,0.7,0.7,0.6c0.4,0,0.6-0.3,0.6-0.6v-4.7h2.7
	v4.7c0,0.4,0.3,0.7,0.7,0.6c0.4,0,0.6-0.3,0.6-0.6v-3c3.7,1.1,6.4,4.4,6.7,8.4h-3.3c-0.4,0-0.7,0.3-0.6,0.7c0,0.4,0.3,0.6,0.6,0.6
	h4.7c0.4,0,0.7,0.3,0.6,0.7c0,0.4-0.3,0.6-0.6,0.6L379.3,23.8z M383.4,25.2v4.5c-0.9-1.3-1.3-2.9-1.3-4.5H383.4z M376.1,34.7
	l2.7-2.7c0.5-0.5,1.2-0.8,1.9-0.8h2v1.3h-2c-0.4,0-0.7,0.3-0.7,0.7v1.1l-1.8,1.8c-0.3,0.3-0.3,0.7,0,1l0.2,0.2l-1.7,1.7l-0.5-0.5
	C375.1,37.5,375.1,35.8,376.1,34.7z M379.3,42c-0.4,0-0.7-0.3-0.7-0.7c0-0.2-0.1-0.4-0.2-0.5l-0.9-0.9l1.7-1.7l0.7,0.7V42L379.3,42z
	 M382,48.7h-0.7v-1.3h1.3v1.3L382,48.7z M388.1,48.7h-4v-1.3c0.4,0,0.7-0.3,0.7-0.7V46h3.4V48.7z M388.7,42.7
	c-0.4,0-0.7,0.3-0.7,0.7v1.3h-4V40h12.1v3.4c0,0.4-0.3,0.7-0.7,0.7h-3.4v-2c0-0.4-0.3-0.7-0.7-0.6c-0.4,0-0.6,0.3-0.6,0.6v0.7
	L388.7,42.7z M394.8,46.7c0,0.7-0.6,1.3-1.3,1.3s-1.3-0.6-1.3-1.3v-1.3h2.7V46.7z M398.8,48.7h-1.3v-1.3h1.3L398.8,48.7z
	 M401.7,40.8c-0.1,0.1-0.2,0.3-0.2,0.5c0,0.4-0.3,0.7-0.7,0.7h-0.7v-3.1l0.7-0.7l1.7,1.7L401.7,40.8z M404,38.5l-0.5,0.5l-1.7-1.7
	l0.2-0.2c0.3-0.3,0.3-0.7,0-1l-1.8-1.8v-1.1c0-0.4-0.3-0.7-0.7-0.7h-2v-1.3h2c0.7,0,1.4,0.3,1.9,0.8l2.7,2.7
	C405.1,35.8,405.1,37.5,404,38.5L404,38.5z M386,27.2c0-0.4,0.3-0.7,0.7-0.6c0.4,0,0.6,0.3,0.6,0.6c0,0.4-0.3,0.7-0.7,0.6
	C386.3,27.8,386.1,27.6,386,27.2z M392.8,27.2c0-0.4,0.3-0.7,0.7-0.6c0.4,0,0.6,0.3,0.6,0.6c0,0.4-0.3,0.7-0.7,0.6
	C393.1,27.8,392.8,27.6,392.8,27.2z M388.3,29.7c-0.3-0.3-0.3-0.7,0-1c0.5-0.5,1.2-0.6,1.8-0.3c0.6-0.3,1.3-0.1,1.8,0.3
	c0.3,0.3,0.3,0.7,0,1c-0.3,0.3-0.7,0.3-1,0c0,0,0,0,0,0c-0.1-0.1-0.3-0.1-0.4,0c-0.3,0.3-0.7,0.3-1,0c-0.1-0.1-0.3-0.1-0.4,0
	C389,30,388.5,30,388.3,29.7L388.3,29.7z M390.1,22.5c1.5,0,2.7-1.2,2.7-2.7c0-1.5-1.2-2.7-2.7-2.7c-1.5,0-2.7,1.2-2.7,2.7
	C387.4,21.3,388.6,22.5,390.1,22.5z M390.1,18.5c0.7,0,1.3,0.6,1.3,1.3s-0.6,1.3-1.3,1.3c-0.7,0-1.3-0.6-1.3-1.3
	C388.7,19.1,389.3,18.5,390.1,18.5z"/>
<path id="Union_1" class="st1" d="M433.9,46.1c-0.4,0-0.7-0.3-0.7-0.7v-5.6c0-3.8,3.1-7,6.9-7.1c-1-0.9-1.5-2.2-1.5-3.5v-4
	c0-2.3,1.9-4.2,4.2-4.2h5.7c0.4,0,0.7,0.3,0.7,0.7v2.8c0,0.7-0.2,1.4-0.7,2v2.7c0,1.3-0.6,2.6-1.5,3.5c3.8,0.1,6.9,3.3,6.9,7.1v5.6
	c0,0.4-0.3,0.7-0.7,0.7L433.9,46.1z M450.9,40v4.8h1.5v-4.9c0-2.7-1.9-5.1-4.6-5.7l-3.6,6.1c-0.1,0.2-0.3,0.3-0.6,0.3
	s-0.5-0.1-0.6-0.3l-3.6-6.2c-2.8,0.5-4.8,2.9-4.8,5.7v4.9h1.7V40c0-0.4,0.3-0.7,0.7-0.7c0.4,0,0.7,0.3,0.7,0.7v4.8h11.8V40
	c0-0.4,0.3-0.7,0.7-0.7C450.6,39.3,450.9,39.6,450.9,40C450.9,40,450.9,40,450.9,40L450.9,40z M443.6,38.6l2.7-4.5h-5.4L443.6,38.6z
	 M440,29.1c0,2,1.6,3.5,3.5,3.5c2,0,3.5-1.6,3.5-3.5v-1.6c-0.4,0.2-0.8,0.3-1.3,0.3H440L440,29.1z M440,25.1v1.3h5.8
	c1.1,0,1.9-0.9,1.9-1.9v-2.1h-5C441.2,22.3,440,23.6,440,25.1L440,25.1z M446.9,41.7c-0.4,0-0.7-0.3-0.7-0.7s0.3-0.7,0.7-0.7h1
	c0.4,0,0.7,0.3,0.7,0.7c0,0.4-0.3,0.7-0.7,0.7H446.9z M456.1,31.4c-0.3-0.1-0.4-0.4-0.4-0.6v-3.7h-5.2c-0.4,0-0.7-0.3-0.7-0.7
	c0-0.4,0.3-0.7,0.7-0.7h5.9c0.4,0,0.7,0.3,0.7,0.7v2.8l3.2-3.2c0.1-0.1,0.3-0.2,0.5-0.2h2.5c1.1,0,2.1-0.9,2.1-2.1v-9.2
	c0-1.1-0.9-2.1-2.1-2.1h-3.9c-0.4,0-0.7-0.3-0.7-0.7c0-0.4,0.3-0.7,0.7-0.7h3.9c1.9,0,3.4,1.5,3.4,3.4v9.2c0,1.9-1.5,3.4-3.4,3.4
	H461l-4.2,4.2c-0.1,0.1-0.3,0.2-0.5,0.2C456.3,31.5,456.2,31.4,456.1,31.4L456.1,31.4z M444.7,29.9c-0.1-0.1-0.2-0.3-0.2-0.5
	c0-0.2,0.1-0.4,0.2-0.5c0.1-0.1,0.3-0.2,0.5-0.2c0.2,0,0.4,0.1,0.5,0.2c0.1,0.1,0.2,0.3,0.2,0.5c0,0.2-0.1,0.4-0.2,0.5
	c-0.1,0.1-0.3,0.2-0.5,0.2C445,30.1,444.8,30,444.7,29.9z M441.4,29.9c-0.1-0.1-0.2-0.3-0.2-0.5c0-0.2,0.1-0.4,0.2-0.5
	c0.1-0.1,0.3-0.2,0.5-0.2c0.2,0,0.4,0.1,0.5,0.2c0.1,0.1,0.2,0.3,0.2,0.5c0,0.2-0.1,0.4-0.2,0.5c-0.1,0.1-0.3,0.2-0.5,0.2
	C441.7,30.1,441.5,30,441.4,29.9L441.4,29.9z M456.4,23.8c-0.1-0.1-0.2-0.3-0.2-0.5c0-0.2,0.1-0.4,0.2-0.5c0.1-0.1,0.3-0.2,0.5-0.2
	c0.2,0,0.4,0.1,0.5,0.2c0.1,0.1,0.2,0.3,0.2,0.5c0,0.2-0.1,0.4-0.2,0.5c-0.1,0.1-0.3,0.2-0.5,0.2C456.7,24,456.5,23.9,456.4,23.8
	L456.4,23.8z M456.2,21v-1.4c0-0.6,0.4-1.1,0.9-1.2c0.6-0.1,1-0.6,0.9-1.2c0-0.6-0.5-1-1.1-1.1c-0.3,0-0.6,0.1-0.9,0.3
	c-0.2,0.2-0.4,0.5-0.4,0.9c0,0.4-0.3,0.7-0.7,0.7c-0.4,0-0.7-0.3-0.7-0.7c0-0.7,0.3-1.4,0.8-1.9c0.5-0.5,1.2-0.7,1.9-0.7
	c1.3,0.1,2.3,1.1,2.4,2.4c0.1,1.2-0.7,2.3-1.8,2.6V21c0,0.4-0.3,0.7-0.7,0.7C456.5,21.7,456.2,21.4,456.2,21L456.2,21z M447.1,18.2
	v-3.8c0-1.9,1.5-3.4,3.4-3.4h3.9c0.4,0,0.7,0.3,0.7,0.7c0,0.4-0.3,0.7-0.7,0.7h-3.9c-1.1,0-2.1,0.9-2.1,2.1v3.8
	c0,0.4-0.3,0.7-0.7,0.7C447.4,18.9,447.1,18.6,447.1,18.2C447.1,18.2,447.1,18.2,447.1,18.2L447.1,18.2z M456.4,12.2
	c-0.1-0.1-0.2-0.3-0.2-0.5c0-0.2,0.1-0.4,0.2-0.5c0.1-0.1,0.3-0.2,0.5-0.2c0.2,0,0.4,0.1,0.5,0.2c0.1,0.1,0.2,0.3,0.2,0.5
	c0,0.2-0.1,0.4-0.2,0.5c-0.1,0.1-0.3,0.2-0.5,0.2C456.7,12.4,456.5,12.3,456.4,12.2L456.4,12.2z"/>
<g id="Path_1190">
	<polygon class="st1" points="517.2,47.8 499,29.5 517.3,12.3 521.2,16.5 507.2,29.7 521.2,43.7 	"/>
</g>
<g>
	<path class="st5" d="M581.6,32.4c-0.1-0.2-0.2-0.3-0.4-0.5v0V19.7c0-0.4-0.3-0.7-0.7-0.7h-3.8v-0.8c0-0.4-0.3-0.7-0.7-0.7
		c-0.4,0-0.7,0.3-0.7,0.7v0.8h-3v-0.8c0-0.4-0.3-0.7-0.7-0.7c-0.4,0-0.7,0.3-0.7,0.7v0.8h-3v-0.8c0-0.4-0.3-0.7-0.7-0.7
		c-0.4,0-0.7,0.3-0.7,0.7v0.8h-3v-0.8c0-0.4-0.3-0.7-0.7-0.7c-0.4,0-0.7,0.3-0.7,0.7v0.8h-3.8c-0.4,0-0.7,0.3-0.7,0.7v19.5
		c0,0.4,0.3,0.7,0.7,0.7h12.4c2.1,3.1,6.2,3.9,9.3,1.9C582.8,39.7,583.6,35.5,581.6,32.4z M558.7,20.4h3v0.7c0,0.4,0.3,0.7,0.7,0.7
		s0.7-0.3,0.7-0.7c0,0,0,0,0,0v-0.7h3v0.7c0,0.4,0.3,0.7,0.7,0.7c0.4,0,0.7-0.3,0.7-0.7v-0.7h3v0.7c0,0.4,0.3,0.7,0.7,0.7
		c0.4,0,0.7-0.3,0.7-0.7c0,0,0,0,0,0v-0.7h3v0.7c0,0.4,0.3,0.7,0.7,0.7c0.4,0,0.7-0.3,0.7-0.7c0,0,0,0,0,0v-0.7h3v3h-21V20.4z
		 M570.3,32.5c-0.1-0.1-0.2-0.1-0.3-0.1h-1.5c-0.4,0-0.7,0.3-0.7,0.7c0,0.4,0.3,0.7,0.7,0.7c0,0,0,0,0,0h1.1c-0.2,0.5-0.3,1-0.3,1.5
		h-0.8c-0.4,0-0.7,0.3-0.7,0.7c0,0.4,0.3,0.7,0.7,0.7h0.8c0.1,0.5,0.2,1,0.3,1.5h-10.9V24.9h21v5.7
		C576.6,28.5,572.5,29.3,570.3,32.5C570.4,32.4,570.4,32.5,570.3,32.5z M576,41.4c-2.9,0-5.2-2.3-5.2-5.2s2.3-5.2,5.2-5.2
		s5.2,2.3,5.2,5.2C581.2,39,578.9,41.4,576,41.4z"/>
	<path class="st5" d="M579,35.4L579,35.4l-2.2,0v-2.2c0-0.4-0.3-0.7-0.8-0.7c-0.4,0-0.7,0.3-0.7,0.7v3c0,0.4,0.3,0.7,0.7,0.7h3
		c0.4,0,0.7-0.3,0.7-0.7C579.7,35.7,579.4,35.4,579,35.4z"/>
	<path class="st5" d="M564,26.4h-1.5c-0.4,0-0.7,0.3-0.7,0.7c0,0.4,0.3,0.7,0.7,0.7h1.5c0.4,0,0.7-0.3,0.7-0.7
		C564.7,26.8,564.4,26.4,564,26.4z"/>
	<path class="st5" d="M564,29.4h-1.5c-0.4,0-0.7,0.3-0.7,0.7s0.3,0.7,0.7,0.7h1.5c0.4,0,0.7-0.3,0.7-0.7S564.4,29.4,564,29.4z"/>
	<path class="st5" d="M564,32.4h-1.5c-0.4,0-0.7,0.3-0.7,0.7c0,0.4,0.3,0.7,0.7,0.7h1.5c0.4,0,0.7-0.3,0.7-0.7
		C564.7,32.7,564.4,32.4,564,32.4z"/>
	<path class="st5" d="M570,26.4h-1.5c-0.4,0-0.7,0.3-0.7,0.7c0,0.4,0.3,0.7,0.7,0.7h1.5c0.4,0,0.7-0.3,0.7-0.7
		C570.7,26.8,570.4,26.4,570,26.4z"/>
	<path class="st5" d="M570,29.4h-1.5c-0.4,0-0.7,0.3-0.7,0.7s0.3,0.7,0.7,0.7h1.5c0.4,0,0.7-0.3,0.7-0.7S570.4,29.4,570,29.4z"/>
	<path class="st5" d="M564,35.4h-1.5c-0.4,0-0.7,0.3-0.7,0.8c0,0.4,0.3,0.7,0.7,0.7h1.5c0.4,0,0.7-0.3,0.7-0.8
		C564.7,35.7,564.4,35.4,564,35.4z"/>
	<path class="st5" d="M574.5,27.9h1.5c0.4,0,0.7-0.3,0.7-0.7c0-0.4-0.3-0.7-0.7-0.7h-1.5c-0.4,0-0.7,0.3-0.7,0.7
		C573.7,27.6,574.1,27.9,574.5,27.9z"/>
</g>
</svg>
