<?xml version="1.0" encoding="utf-8"?>
<!-- Generator: Adobe Illustrator 22.1.0, SVG Export Plug-In . SVG Version: 6.00 Build 0)  -->
<svg version="1.1" id="Layer_1" xmlns="http://www.w3.org/2000/svg" xmlns:xlink="http://www.w3.org/1999/xlink" x="0px" y="0px"
	 viewBox="0 0 600 600" style="enable-background:new 0 0 600 600;" xml:space="preserve">
<style type="text/css">
	.st0{fill:#0960B8;}
	.st1{fill:#FFFFFF;}
</style>
<g id="Group_2747" transform="translate(-303 -278.819)">
	<g id="Line_2" transform="translate(303 278.819)">
		
			<rect id="Rectangle_635" x="29.4" y="20.8" transform="matrix(0.7071 -0.7071 0.7071 0.7071 -12.275 29.9373)" class="st0" width="1.3" height="17.9"/>
	</g>
	<g id="Line_2-2" transform="translate(303 278.819)">
		
			<rect id="Rectangle_636" x="21" y="29.2" transform="matrix(0.7071 -0.7071 0.7071 0.7071 -12.2752 29.9374)" class="st0" width="17.9" height="1.3"/>
	</g>
</g>
<rect x="180" y="0.1" class="st0" width="60" height="60"/>
<rect x="240" y="0.1" class="st0" width="60" height="60"/>
<rect x="300" class="st0" width="60" height="60"/>
<rect x="360" y="0.1" class="st0" width="60" height="60"/>
<rect x="420" y="0.1" class="st0" width="60" height="60"/>
<rect x="480" class="st0" width="60" height="60"/>
<rect x="540" y="0.1" class="st0" width="60" height="60"/>
<g>
	
		<image style="overflow:visible;opacity:0.3;" width="48" height="56" xlink:href="F31504CDE33F35B.png"  transform="matrix(1 0 0 1 66 5)">
	</image>
	<g>
		<g>
			<path class="st1" d="M81.7,19.1c0.3,0,0.5-0.2,0.5-0.5c0-0.3-0.2-0.5-0.5-0.5c0,0,0,0,0,0c-1.3,0-2.3,1-2.3,2.3
				c0,1.3,1,2.3,2.3,2.3c1.3,0,2.3-1,2.3-2.3c0-0.3-0.2-0.5-0.5-0.5c0,0,0,0,0,0h0c-0.3,0-0.5,0.2-0.5,0.5c0,0,0,0,0,0
				c0,0.7-0.5,1.2-1.2,1.2c-0.7,0-1.2-0.5-1.2-1.2S81,19.1,81.7,19.1z"/>
			<path class="st1" d="M83.4,26.2C83.4,26.2,83.4,26.2,83.4,26.2L83.4,26.2c-0.3,0-0.6,0.2-0.6,0.5c0,0,0,0,0,0
				c0,0.7-0.5,1.2-1.2,1.2c-0.7,0-1.2-0.5-1.2-1.2v0c0-0.7,0.5-1.2,1.2-1.2c0.3,0,0.5-0.2,0.5-0.5c0-0.3-0.2-0.5-0.5-0.5
				c-1.3,0-2.3,1-2.3,2.3s1,2.3,2.3,2.3c1.3,0,2.3-1,2.3-2.3C84,26.4,83.7,26.2,83.4,26.2z"/>
			<path class="st1" d="M89.8,27.4L89.8,27.4l-4.1,0c-0.3,0-0.5,0.2-0.5,0.5s0.2,0.5,0.5,0.5h4.1c0.3,0,0.5-0.2,0.5-0.5
				C90.4,27.6,90.1,27.4,89.8,27.4z"/>
			<path class="st1" d="M89.8,25L89.8,25l-4.1,0c-0.3,0-0.5,0.2-0.5,0.5c0,0.3,0.2,0.5,0.5,0.5h4.1c0.3,0,0.5-0.2,0.5-0.5
				C90.4,25.3,90.1,25,89.8,25z"/>
			<path class="st1" d="M85.8,33.8c-0.3,0-0.5,0.2-0.5,0.5c0,0,0,0,0,0c0,0.3,0.2,0.5,0.5,0.5h2.9c0.3,0,0.5-0.2,0.5-0.5
				c0-0.3-0.2-0.5-0.5-0.5c0,0,0,0,0,0v0H85.8z"/>
			<path class="st1" d="M90.4,32c0-0.3-0.2-0.5-0.5-0.5l0,0h-4.1c-0.3,0-0.5,0.2-0.5,0.5c0,0,0,0,0,0c0,0.3,0.2,0.5,0.5,0.5h4.1
				C90.1,32.5,90.4,32.3,90.4,32z"/>
			<path class="st1" d="M95.6,21.5c0-0.3-0.2-0.5-0.5-0.5h-9.3c-0.3,0-0.5,0.2-0.5,0.5c0,0.3,0.2,0.5,0.5,0.5h9.3
				C95.4,22,95.6,21.8,95.6,21.5z"/>
			<path class="st1" d="M85.8,19.7h7c0.3,0,0.5-0.2,0.5-0.5c0-0.3-0.2-0.5-0.5-0.5l0,0h-7c-0.3,0-0.5,0.2-0.5,0.5
				C85.2,19.5,85.5,19.7,85.8,19.7z"/>
			<path class="st1" d="M81.7,31.9c0.3,0,0.5-0.2,0.5-0.5c0-0.3-0.2-0.5-0.5-0.5c0,0,0,0,0,0c-1.3,0-2.3,1-2.3,2.3
				c0,1.3,1,2.3,2.3,2.3c1.3,0,2.3-1,2.3-2.3v0c0-0.3-0.2-0.5-0.5-0.5c0,0,0,0,0,0l0,0c-0.3,0-0.5,0.2-0.5,0.5c0,0,0,0,0,0
				c0,0.7-0.5,1.2-1.2,1.2c-0.7,0-1.2-0.5-1.2-1.2v0C80.5,32.5,81,31.9,81.7,31.9z"/>
			<path class="st1" d="M102.6,34.4L102.6,34.4c-1,0.5-2.2,0.2-2.9-0.6c-0.8,0.3-1.7,0.3-2.5,0c0,0-0.1,0-0.1,0
				c-0.4-0.1-0.7-0.3-1-0.6V27c0-0.1,0-0.2,0-0.3c-0.1-1.4-1.4-2.4-2.8-2.2c-1.3,0.2-2.3,1.3-2.2,2.6v6.8l-1.5,1.5
				c-1,1-1.4,2.4-1.1,3.7l0.1,0.3c-0.2-0.4-0.7-0.6-1.2-0.6h-9.7v-24h19.3v17.8c0,0,0,0,0,0c0,0.8,0.6,1.4,1.4,1.4
				c0.8,0,1.4-0.6,1.4-1.4V14.5c0-1.4-1.1-2.6-2.6-2.6H77.6c-1.4,0-2.6,1.1-2.6,2.6V39c0,1.4,1.1,2.6,2.6,2.6h9.9
				c0.7,0,1.3-0.6,1.4-1.3l0.9,3.9c0.5,2.3,2.6,4,5,4l0,0h4.9c2.8,0,5.1-2.3,5.1-5.1v-6C104.9,35.7,103.9,34.6,102.6,34.4z
				 M92.2,38.6c0.6,0,1-0.5,1.1-1V27.1c0-0.2,0.1-0.4,0.4-0.5h0c0,0,0,0,0,0c0.2,0,0.4,0.2,0.4,0.4v9.6c0,0.6,0.5,1,1,1s1-0.5,1-1
				v-0.9c0-0.2,0.2-0.4,0.4-0.4c0.2,0,0.4,0.3,0.4,0.5v1.4c0,0.6,0.5,1,1,1c0.6,0,1-0.5,1.1-1v-0.9c0-0.2,0.2-0.4,0.4-0.4
				c0.2,0,0.4,0.3,0.4,0.5v1.4c0,0,0,0,0,0c0,0.6,0.5,1,1.1,1c0.6,0,1-0.5,1-1.1v-0.9c0,0,0,0,0,0c0-0.2,0.2-0.4,0.4-0.4
				c0.2,0,0.4,0.3,0.4,0.5v6c0,1.7-1.4,3-3,3h-4.9c-1.4,0-2.6-1-2.9-2.3l-1.2-5.2c-0.1-0.6,0-1.3,0.5-1.7l0,0.7
				C91.1,38.1,91.6,38.6,92.2,38.6z"/>
		</g>
	</g>
</g>
<g id="Group_2343" transform="translate(-447.14 -285.26)">
	
		<image style="overflow:visible;opacity:0.3;" width="44" height="57" xlink:href="F31504CDE33F359.png"  transform="matrix(1 0 0 1 575.14 286.26)">
	</image>
	<g>
		<g>
			<g id="Group_2707_9_">
				<g id="Group_2706_9_">
					<path id="Path_1473_12_" class="st1" d="M590.6,304.3h13.2c0,0-2.6,8.3-6.6,8.3S590.6,304.3,590.6,304.3z"/>
					<path id="Path_1474_12_" class="st1" d="M609.3,316.4c-1.5-2.1-3.9-3.4-6.5-3.7c0,0-4.9,6-11.3,0c-2.6,0.3-5,1.7-6.5,3.8
						c-1,6.7,3.5,13,10.2,14c6.7,1,13-3.5,14-10.2C609.5,318.9,609.5,317.6,609.3,316.4z M599.6,321.4c-0.1,0-0.2,0-0.3,0l-1.3,1.3
						l2.3,2.3c0.2,0.2,0.2,0.6,0,0.8l-0.2,0.2c-0.2,0.2-0.6,0.2-0.8,0l-2.3-2.4l-2.2,2.2c-0.2,0.2-0.6,0.2-0.9,0l-0.2-0.2
						c-0.2-0.2-0.2-0.6,0-0.9l0,0l2.2-2.2l-1.1-1.1l-1.8,1.8l-1.2-1.1l3.1-3.1c0.7-0.6,1.7-0.7,2.6-0.3l-1.7,1.7l1.1,1.1l1.3-1.3
						c0,0,0,0,0,0c0-0.1,0-0.2,0-0.3c0-0.7,0.6-1.4,1.4-1.4c0.1,0,0.1,0,0.2,0c-0.5,0.1-0.8,0.6-0.7,1.1c0.1,0.5,0.6,0.8,1.1,0.7
						c0.3-0.1,0.6-0.4,0.7-0.7c0,0.1,0,0.2,0,0.2C601,320.8,600.3,321.4,599.6,321.4L599.6,321.4L599.6,321.4z"/>
					<path id="Path_1478_12_" class="st1" d="M605.4,300.8h-0.5c0-0.1,0-0.2,0-0.3c-0.1-2.8-1.7-5.3-4.2-6.5l-0.8,3.8
						c-0.1,0.3-0.4,0.5-0.6,0.4c-0.3-0.1-0.5-0.3-0.4-0.6l0.8-4l0.1-0.5c-0.8-0.3-1.6-0.4-2.5-0.4c-0.9,0-1.8,0.2-2.6,0.5l0.1,0.5
						l0.8,4c0.1,0.3-0.1,0.6-0.4,0.6c-0.3,0-0.5-0.1-0.6-0.4l-0.8-3.8c-2.4,1.3-4,3.7-4.1,6.5c0,0.1,0,0.2,0,0.3h-0.5
						c-0.2,0-0.5,0.1-0.6,0.3c-0.4,0.4-0.4,0.9,0,1.3c0.2,0.2,0.4,0.3,0.6,0.3h16.1c0.5,0,0.9-0.4,0.9-0.9
						C606.3,301.2,605.9,300.8,605.4,300.8L605.4,300.8L605.4,300.8L605.4,300.8z"/>
				</g>
			</g>
		</g>
	</g>
</g>
</svg>
